<svg viewBox="0 0 120 120" fill="none" xmlns="http://www.w3.org/2000/svg">
<path d="M120 60C120 102.883 102.883 120 60 120C17.1167 120 0 102.883 0 60C0 17.1167 17.1167 0 60 0C102.883 0 120 17.1167 120 60Z" fill="#9C9C9C"/>
<path d="M46.4615 36.5385V66.0769H76V36.5385H46.4615ZM73.3447 63.4216H49.1168V39.1937H73.3447V63.4216Z" fill="#F9F9F4"/>
<path d="M50.8284 58.7747H71.6331C71.841 58.7747 72.0319 58.6606 72.1304 58.4776C72.2289 58.2951 72.219 58.0727 72.1044 57.8994L65.6484 48.1178C65.3871 47.7216 64.9443 47.4836 64.4694 47.4836C63.9949 47.4847 63.5521 47.7232 63.2914 48.1203L58.7435 55.0414L56.2334 52.1964C55.942 51.8666 55.5137 51.6909 55.0751 51.7225C54.6359 51.7536 54.2366 51.988 53.9955 52.3555L50.3566 57.9005C50.2426 58.0741 50.2332 58.2955 50.3318 58.4781C50.4302 58.6612 50.621 58.7747 50.8284 58.7747Z" fill="#F9F9F4"/>
<path d="M56.1301 49.565C57.7111 49.565 58.9924 48.2837 58.9924 46.7028C58.9924 45.1219 57.7111 43.8406 56.1301 43.8406C54.5493 43.8406 53.2675 45.1218 53.2675 46.7028C53.2675 48.2837 54.5493 49.565 56.1301 49.565Z" fill="#F9F9F4"/>
<path d="M46.0823 46.9526L46.0959 46.9672L46.11 46.9814C46.5832 47.4545 47.1835 47.6923 47.8462 47.6923C48.5029 47.6923 49.1041 47.4574 49.5641 46.9673C50.0279 46.4964 50.261 45.9013 50.261 45.2453V41.261H54.2774C54.9153 41.261 55.5134 41.0502 55.9814 40.5823C56.4545 40.1091 56.6923 39.5088 56.6923 38.8462C56.6923 38.1959 56.462 37.6 55.9817 37.1419C55.5235 36.6615 54.9277 36.4313 54.2774 36.4313H50.261V32.4149C50.261 31.7646 50.0308 31.1688 49.5504 30.7106C49.0923 30.2303 48.4964 30 47.8462 30C47.1835 30 46.5832 30.2378 46.11 30.7109L46.8073 31.4082L46.11 30.7109C45.6421 31.1789 45.4313 31.777 45.4313 32.4149V36.4313H41.4149C40.7523 36.4313 40.1519 36.6691 39.6788 37.1422C39.2108 37.6102 39 38.2083 39 38.8462C39 39.4845 39.21 40.0756 39.6511 40.5534L39.6782 40.5828L39.7076 40.61C40.1854 41.051 40.7765 41.261 41.4149 41.261H45.4313V45.2453C45.4313 45.8837 45.6413 46.4747 46.0823 46.9526Z" fill="#F9F9F4" stroke="#9C9C9C" stroke-width="2"/>
<path d="M35.2 88.24H32.208C32.288 87.616 32.352 86.912 32.416 86.112C32.448 85.856 32.48 85.312 32.48 85.312H25.696C25.792 84.88 25.872 84.416 25.968 83.952H32.176V82.32H26.288C26.368 81.888 26.448 81.456 26.512 81.056L25.296 80.944H32.992V83.056H34.976V79.184H21.088V83.056H22.976V80.944H24.592C24.256 82.992 23.744 85.648 23.28 87.296L25.216 87.44L25.328 86.976H30.432C30.4 87.44 30.352 87.856 30.304 88.24H20.832V89.984H30.048C29.872 90.816 29.664 91.28 29.44 91.472C29.232 91.648 29.008 91.68 28.672 91.68C28.224 91.68 27.168 91.664 26.096 91.568C26.464 92.08 26.72 92.832 26.752 93.376C27.776 93.408 28.8 93.424 29.376 93.36C30.096 93.296 30.56 93.152 31.024 92.672C31.424 92.256 31.728 91.456 31.968 89.984H35.2V88.24ZM47.104 83.648H41.072V82.976H47.104V83.648ZM47.104 85.408H41.072V84.736H47.104V85.408ZM47.104 87.184H41.072V86.464H47.104V87.184ZM42.976 81.856H39.232V88.288H49.04V81.856H44.96V81.184H50.784V79.6H44.96V78.448H42.976V79.6H37.376V81.184H42.976V81.856ZM51.12 90.48V88.912H36.896V90.48H41.248C40.24 91.088 38.384 91.776 36.832 92.112C37.232 92.48 37.808 93.04 38.112 93.424C39.696 93.04 41.68 92.272 42.944 91.52L41.456 90.48H46.192L45.104 91.52C46.832 92.128 48.624 92.88 49.68 93.408L51.312 92.144C50.224 91.68 48.448 91.024 46.848 90.48H51.12ZM59.776 79.168L57.664 78.992C57.632 79.568 57.52 80.192 57.344 80.832C57.088 80.832 56.816 80.832 56.576 80.832C55.76 80.832 54.576 80.768 53.76 80.64V82.512C54.64 82.576 55.808 82.608 56.464 82.608C56.528 82.608 56.592 82.608 56.672 82.608C55.952 84.048 54.816 85.472 53.136 87.024L54.848 88.304C55.392 87.6 55.856 87.024 56.336 86.544C56.944 85.952 57.936 85.44 58.832 85.44C59.28 85.44 59.712 85.584 59.952 85.984C58.128 86.928 56.208 88.208 56.208 90.256C56.208 92.32 58.064 92.928 60.576 92.928C62.08 92.928 64.048 92.8 65.104 92.656L65.168 90.592C63.76 90.864 61.984 91.04 60.624 91.04C59.056 91.04 58.304 90.8 58.304 89.92C58.304 89.12 58.944 88.496 60.144 87.808C60.128 88.512 60.112 89.28 60.064 89.76H61.984C61.968 89.024 61.936 87.84 61.92 86.944C62.896 86.496 63.808 86.144 64.528 85.856C65.072 85.648 65.92 85.328 66.432 85.184L65.632 83.328C65.04 83.632 64.48 83.888 63.856 84.16C63.2 84.448 62.528 84.72 61.696 85.104C61.344 84.288 60.544 83.872 59.568 83.872C59.04 83.872 58.176 84 57.76 84.192C58.08 83.728 58.4 83.152 58.672 82.56C60.4 82.512 62.368 82.384 63.888 82.16L63.904 80.304C62.496 80.544 60.896 80.688 59.376 80.768C59.584 80.096 59.696 79.568 59.776 79.168ZM81.04 80.8H78.24V82.352C78.24 83.632 78.608 84 80.048 84H81.76C82.768 84 83.184 83.696 83.344 82.592C82.928 82.512 82.304 82.32 82.016 82.112C81.952 82.656 81.888 82.752 81.568 82.752H80.272C79.872 82.752 79.792 82.688 79.792 82.336V82.016H82.656V78.928H77.936V80.128H81.04V80.8ZM75.792 80.8H72.992V82.352C72.992 83.632 73.392 84 74.8 84H76.48C77.44 84 77.872 83.696 78.032 82.608C77.6 82.528 76.992 82.336 76.72 82.128C76.656 82.656 76.592 82.752 76.272 82.752H75.04C74.624 82.752 74.56 82.688 74.56 82.352V82.016H77.392V78.928H72.768V80.128H75.792V80.8ZM72.272 81.456C71.872 80.656 70.864 79.584 70.032 78.816L68.528 79.776C69.344 80.576 70.304 81.728 70.656 82.512L72.272 81.456ZM76.928 86.352H78.784V87.408H76.928V86.352ZM76.016 88.816H79.744L78.528 89.504C79.584 90.016 80.704 90.752 81.312 91.248L83.248 90.544C82.528 90.032 81.264 89.344 80.16 88.816H83.28V87.408H80.592V86.352H82.784V84.96H80.592V84.112H78.784V84.96H76.928V84.112H75.168V84.96H73.024V86.352H75.168V87.408H72.56V88.816H75.6C74.928 89.328 73.808 89.776 72.768 90.096C73.152 90.352 73.792 90.896 74.112 91.216C73.184 90.992 72.48 90.528 72.048 89.776V84.656H68.64V86.4H70.288V89.936C69.68 90.48 68.976 91.008 68.4 91.424L69.296 93.232C70.064 92.544 70.688 91.92 71.296 91.28C72.256 92.528 73.568 92.992 75.488 93.072C77.488 93.168 81.024 93.136 83.056 93.024C83.136 92.512 83.408 91.68 83.616 91.248C81.376 91.44 77.456 91.488 75.488 91.392C75.008 91.376 74.576 91.328 74.176 91.232C75.264 90.784 76.608 90.048 77.408 89.296L76.016 88.816ZM90.512 85.36L88.608 85.744V83.264H90.544V81.52H88.608V78.464H86.784V81.52H84.688V83.264H86.784V86.096C85.904 86.272 85.104 86.416 84.432 86.512L84.848 88.336C85.44 88.208 86.096 88.08 86.784 87.936V91.296C86.784 91.552 86.704 91.632 86.464 91.648C86.24 91.648 85.472 91.648 84.752 91.616C84.976 92.112 85.232 92.88 85.28 93.36C86.512 93.36 87.312 93.312 87.872 93.024C88.416 92.736 88.608 92.272 88.608 91.312V87.552C89.296 87.408 90 87.248 90.672 87.104L90.512 85.36ZM97.056 81.12V84.448H93.072V81.12H97.056ZM98.976 86.224V79.328H91.184V84.752C91.184 87.088 91.024 90.08 89.072 92.096C89.488 92.336 90.24 93.024 90.56 93.392C92.368 91.552 92.912 88.656 93.04 86.224H94.304C94.944 89.552 96.08 92.112 98.448 93.424C98.72 92.912 99.312 92.144 99.76 91.76C97.808 90.8 96.736 88.704 96.192 86.224H98.976Z" fill="#F9F9F4"/>
</svg>
