<svg viewBox="0 0 120 120" fill="none" xmlns="http://www.w3.org/2000/svg">
<path d="M120 60C120 102.883 102.883 120 60 120C17.1167 120 0 102.883 0 60C0 17.1167 17.1167 0 60 0C102.883 0 120 17.1167 120 60Z" fill="#9C9C9C"/>
<path d="M46.4615 36.5385V66.0769H76V36.5385H46.4615ZM73.3447 63.4216H49.1168V39.1937H73.3447V63.4216V63.4216Z" fill="#F9F9F4"/>
<path d="M50.8284 58.7747H71.6331C71.841 58.7747 72.0319 58.6606 72.1304 58.4776C72.2289 58.2951 72.219 58.0727 72.1044 57.8994L65.6484 48.1178C65.3871 47.7216 64.9443 47.4836 64.4694 47.4836C63.9949 47.4847 63.5521 47.7232 63.2914 48.1203L58.7435 55.0414L56.2334 52.1964C55.942 51.8666 55.5137 51.6909 55.0751 51.7225C54.6359 51.7536 54.2366 51.988 53.9955 52.3555L50.3566 57.9005C50.2426 58.0741 50.2332 58.2955 50.3318 58.4781C50.4302 58.6612 50.621 58.7747 50.8284 58.7747Z" fill="#F9F9F4"/>
<path d="M56.1301 49.565C57.7111 49.565 58.9924 48.2837 58.9924 46.7028C58.9924 45.1219 57.7111 43.8406 56.1301 43.8406C54.5493 43.8406 53.2675 45.1218 53.2675 46.7028C53.2675 48.2837 54.5493 49.565 56.1301 49.565Z" fill="#F9F9F4"/>
<path d="M46.0823 46.9526L46.0959 46.9672L46.11 46.9814C46.5832 47.4545 47.1835 47.6923 47.8462 47.6923C48.5029 47.6923 49.1041 47.4574 49.564 46.9673C50.0279 46.4964 50.261 45.9013 50.261 45.2453V41.261H54.2774C54.9153 41.261 55.5134 41.0502 55.9814 40.5823C56.4545 40.1091 56.6923 39.5088 56.6923 38.8462C56.6923 38.1959 56.462 37.6 55.9817 37.1419C55.5235 36.6615 54.9277 36.4313 54.2774 36.4313H50.261V32.4149C50.261 31.7646 50.0308 31.1688 49.5504 30.7106C49.0923 30.2303 48.4964 30 47.8462 30C47.1835 30 46.5832 30.2378 46.11 30.7109L46.8171 31.418L46.11 30.7109C45.6421 31.1789 45.4313 31.777 45.4313 32.4149V36.4313H41.4149C40.7523 36.4313 40.1519 36.6691 39.6788 37.1422C39.2108 37.6102 39 38.2083 39 38.8462C39 39.4845 39.21 40.0756 39.6511 40.5534L39.6782 40.5828L39.7076 40.61C40.1854 41.051 40.7765 41.261 41.4149 41.261H45.4313V45.2453C45.4313 45.8837 45.6413 46.4747 46.0823 46.9526Z" fill="#F9F9F4" stroke="#9C9C9C" stroke-width="2"/>
<path d="M22.4119 92.096C22.1025 92.096 21.8519 92.0053 21.6599 91.824C21.4785 91.632 21.3879 91.376 21.3879 91.056V81.696C21.3879 81.3867 21.4732 81.1467 21.6439 80.976C21.8252 80.8053 22.0705 80.72 22.3799 80.72H26.3159C27.5212 80.72 28.4599 81.024 29.1319 81.632C29.8039 82.2293 30.1399 83.072 30.1399 84.16C30.1399 85.248 29.8039 86.096 29.1319 86.704C28.4599 87.312 27.5212 87.616 26.3159 87.616H23.4519V91.056C23.4519 91.376 23.3559 91.632 23.1639 91.824C22.9825 92.0053 22.7319 92.096 22.4119 92.096ZM26.0599 86.032C27.4785 86.032 28.1879 85.4133 28.1879 84.176C28.1879 82.9387 27.4785 82.32 26.0599 82.32H23.4519V86.032H26.0599ZM32.7664 92.096C32.4784 92.096 32.2384 92.016 32.0464 91.856C31.865 91.6853 31.7744 91.4453 31.7744 91.136V84.96C31.7744 84.6507 31.865 84.416 32.0464 84.256C32.2384 84.096 32.4784 84.016 32.7664 84.016C33.0544 84.016 33.2944 84.096 33.4864 84.256C33.6784 84.416 33.7744 84.6507 33.7744 84.96V91.136C33.7744 91.4453 33.6784 91.6853 33.4864 91.856C33.2944 92.016 33.0544 92.096 32.7664 92.096ZM32.7664 82.592C32.4037 82.592 32.1157 82.496 31.9024 82.304C31.689 82.1013 31.5824 81.84 31.5824 81.52C31.5824 81.2 31.689 80.944 31.9024 80.752C32.1157 80.56 32.4037 80.464 32.7664 80.464C33.1184 80.464 33.401 80.56 33.6144 80.752C33.8384 80.944 33.9504 81.2 33.9504 81.52C33.9504 81.84 33.8437 82.1013 33.6304 82.304C33.417 82.496 33.129 82.592 32.7664 82.592ZM39.3089 92.128C38.5302 92.128 37.8422 91.9627 37.2449 91.632C36.6582 91.3013 36.2049 90.832 35.8849 90.224C35.5649 89.616 35.4049 88.9067 35.4049 88.096C35.4049 87.2853 35.5702 86.5707 35.9009 85.952C36.2422 85.3227 36.7169 84.8373 37.3249 84.496C37.9329 84.1547 38.6315 83.984 39.4209 83.984C39.8369 83.984 40.2529 84.0427 40.6689 84.16C41.0955 84.2773 41.4689 84.4373 41.7889 84.64C42.1302 84.864 42.3009 85.1467 42.3009 85.488C42.3009 85.7227 42.2422 85.9147 42.1249 86.064C42.0182 86.2027 41.8742 86.272 41.6929 86.272C41.5755 86.272 41.4529 86.2453 41.3249 86.192C41.1969 86.1387 41.0689 86.0747 40.9409 86C40.7062 85.8613 40.4822 85.7547 40.2689 85.68C40.0555 85.5947 39.8102 85.552 39.5329 85.552C38.8715 85.552 38.3595 85.7707 37.9969 86.208C37.6449 86.6347 37.4689 87.2533 37.4689 88.064C37.4689 88.864 37.6449 89.4827 37.9969 89.92C38.3595 90.3467 38.8715 90.56 39.5329 90.56C39.7995 90.56 40.0342 90.5227 40.2369 90.448C40.4502 90.3627 40.6849 90.2507 40.9409 90.112C41.1009 90.016 41.2395 89.9467 41.3569 89.904C41.4742 89.8507 41.5915 89.824 41.7089 89.824C41.8795 89.824 42.0235 89.8987 42.1409 90.048C42.2582 90.1973 42.3169 90.384 42.3169 90.608C42.3169 90.7893 42.2742 90.9493 42.1889 91.088C42.1142 91.216 41.9862 91.3333 41.8049 91.44C41.4742 91.6533 41.0902 91.824 40.6529 91.952C40.2155 92.0693 39.7675 92.128 39.3089 92.128ZM50.6094 90.448C50.8227 90.6507 50.9294 90.88 50.9294 91.136C50.9294 91.3813 50.8387 91.6 50.6574 91.792C50.4867 91.984 50.284 92.08 50.0494 92.08C49.8147 92.08 49.596 91.984 49.3934 91.792L45.6494 88.4V91.136C45.6494 91.4453 45.5534 91.68 45.3614 91.84C45.1694 92 44.9294 92.08 44.6414 92.08C44.3534 92.08 44.1134 92 43.9214 91.84C43.74 91.68 43.6494 91.4453 43.6494 91.136V81.584C43.6494 81.2747 43.74 81.04 43.9214 80.88C44.1134 80.72 44.3534 80.64 44.6414 80.64C44.9294 80.64 45.1694 80.72 45.3614 80.88C45.5534 81.04 45.6494 81.2747 45.6494 81.584V87.6L49.0734 84.32C49.2654 84.128 49.484 84.032 49.7294 84.032C49.9747 84.032 50.188 84.1227 50.3694 84.304C50.5507 84.4853 50.6414 84.6987 50.6414 84.944C50.6414 85.1893 50.54 85.4133 50.3374 85.616L47.8254 87.952L50.6094 90.448ZM57.7713 92.096C57.4619 92.096 57.2113 92 57.0193 91.808C56.8379 91.616 56.7473 91.3653 56.7473 91.056V81.664C56.7473 81.3547 56.8379 81.1093 57.0193 80.928C57.2113 80.736 57.4619 80.64 57.7713 80.64C58.0913 80.64 58.3419 80.736 58.5233 80.928C58.7153 81.1093 58.8113 81.3547 58.8113 81.664V91.056C58.8113 91.3653 58.7153 91.616 58.5233 91.808C58.3419 92 58.0913 92.096 57.7713 92.096ZM70.3673 83.984C71.2206 83.984 71.8713 84.24 72.3193 84.752C72.7779 85.2533 73.0073 86.0693 73.0073 87.2V91.136C73.0073 91.4453 72.9113 91.6853 72.7193 91.856C72.5379 92.016 72.2979 92.096 71.9993 92.096C71.7113 92.096 71.4713 92.016 71.2793 91.856C71.0979 91.6853 71.0073 91.4453 71.0073 91.136V87.2C71.0073 86.6133 70.9006 86.1973 70.6873 85.952C70.4846 85.696 70.1699 85.568 69.7433 85.568C69.2206 85.568 68.8046 85.7493 68.4953 86.112C68.1859 86.464 68.0312 86.9493 68.0312 87.568V91.136C68.0312 91.4453 67.9353 91.6853 67.7433 91.856C67.5619 92.016 67.3273 92.096 67.0393 92.096C66.7513 92.096 66.5113 92.016 66.3193 91.856C66.1273 91.6853 66.0313 91.4453 66.0313 91.136V87.2C66.0313 86.6133 65.9246 86.1973 65.7113 85.952C65.5086 85.696 65.1939 85.568 64.7673 85.568C64.2446 85.568 63.8286 85.7493 63.5193 86.112C63.2206 86.464 63.0713 86.9493 63.0713 87.568V91.136C63.0713 91.4453 62.9753 91.6853 62.7833 91.856C62.5913 92.016 62.3513 92.096 62.0633 92.096C61.7753 92.096 61.5353 92.016 61.3433 91.856C61.1619 91.6853 61.0713 91.4453 61.0713 91.136V84.944C61.0713 84.6453 61.1673 84.416 61.3593 84.256C61.5513 84.096 61.7913 84.016 62.0793 84.016C62.3566 84.016 62.5806 84.096 62.7513 84.256C62.9326 84.4053 63.0233 84.624 63.0233 84.912V85.296C63.2686 84.8693 63.5939 84.544 63.9993 84.32C64.4153 84.096 64.8899 83.984 65.4233 83.984C66.5966 83.984 67.3806 84.4747 67.7753 85.456C68.0099 85.008 68.3566 84.6507 68.8153 84.384C69.2739 84.1173 69.7913 83.984 70.3673 83.984ZM78.432 83.984C79.52 83.984 80.3253 84.256 80.848 84.8C81.3813 85.3333 81.648 86.1493 81.648 87.248V91.152C81.648 91.44 81.5627 91.6693 81.392 91.84C81.2213 92 80.9867 92.08 80.688 92.08C80.4107 92.08 80.1813 91.9947 80 91.824C79.8293 91.6533 79.744 91.4293 79.744 91.152V90.8C79.5627 91.216 79.2747 91.5413 78.88 91.776C78.496 92.0107 78.048 92.128 77.536 92.128C77.0133 92.128 76.5387 92.0213 76.112 91.808C75.6853 91.5947 75.3493 91.3013 75.104 90.928C74.8587 90.5547 74.736 90.1387 74.736 89.68C74.736 89.104 74.88 88.6507 75.168 88.32C75.4667 87.9893 75.9467 87.7493 76.608 87.6C77.2693 87.4507 78.1813 87.376 79.344 87.376H79.744V87.008C79.744 86.4853 79.632 86.1067 79.408 85.872C79.184 85.6267 78.8213 85.504 78.32 85.504C78.0107 85.504 77.696 85.552 77.376 85.648C77.056 85.7333 76.6773 85.8613 76.24 86.032C75.9627 86.1707 75.76 86.24 75.632 86.24C75.44 86.24 75.28 86.1707 75.152 86.032C75.0347 85.8933 74.976 85.712 74.976 85.488C74.976 85.3067 75.0187 85.152 75.104 85.024C75.2 84.8853 75.3547 84.7573 75.568 84.64C75.9413 84.4373 76.384 84.2773 76.896 84.16C77.4187 84.0427 77.9307 83.984 78.432 83.984ZM77.936 90.688C78.4693 90.688 78.9013 90.512 79.232 90.16C79.5733 89.7973 79.744 89.3333 79.744 88.768V88.432H79.456C78.7413 88.432 78.1867 88.464 77.792 88.528C77.3973 88.592 77.1147 88.704 76.944 88.864C76.7733 89.024 76.688 89.2427 76.688 89.52C76.688 89.8613 76.8053 90.144 77.04 90.368C77.2853 90.5813 77.584 90.688 77.936 90.688ZM90.3046 84.016C90.6033 84.016 90.8433 84.1013 91.0246 84.272C91.206 84.4427 91.2966 84.672 91.2966 84.96V91.28C91.2966 92.5067 90.9553 93.4347 90.2726 94.064C89.59 94.6933 88.582 95.008 87.2486 95.008C86.086 95.008 85.1153 94.7893 84.3366 94.352C83.942 94.1173 83.7446 93.8347 83.7446 93.504C83.7446 93.2693 83.798 93.0827 83.9046 92.944C84.022 92.8053 84.1713 92.736 84.3526 92.736C84.4486 92.736 84.566 92.7573 84.7046 92.8C84.8433 92.8533 84.9873 92.912 85.1366 92.976C85.5206 93.136 85.862 93.2587 86.1606 93.344C86.47 93.4293 86.822 93.472 87.2166 93.472C88.614 93.472 89.3126 92.7893 89.3126 91.424V90.4C89.078 90.8373 88.7366 91.1787 88.2886 91.424C87.8406 91.6587 87.3286 91.776 86.7526 91.776C86.07 91.776 85.462 91.616 84.9286 91.296C84.406 90.9653 83.9953 90.5067 83.6966 89.92C83.398 89.3333 83.2486 88.656 83.2486 87.888C83.2486 87.12 83.3926 86.4427 83.6806 85.856C83.9793 85.2587 84.3953 84.8 84.9286 84.48C85.462 84.1493 86.07 83.984 86.7526 83.984C87.3286 83.984 87.8406 84.1067 88.2886 84.352C88.7366 84.5867 89.078 84.9227 89.3126 85.36V84.944C89.3126 84.6667 89.4033 84.4427 89.5846 84.272C89.766 84.1013 90.006 84.016 90.3046 84.016ZM87.2806 90.224C87.9206 90.224 88.4166 90.016 88.7686 89.6C89.1313 89.184 89.3126 88.6133 89.3126 87.888C89.3126 87.152 89.1313 86.576 88.7686 86.16C88.4166 85.744 87.9206 85.536 87.2806 85.536C86.6513 85.536 86.1553 85.744 85.7926 86.16C85.43 86.576 85.2486 87.152 85.2486 87.888C85.2486 88.6133 85.43 89.184 85.7926 89.6C86.1553 90.016 86.6513 90.224 87.2806 90.224ZM99.5601 89.856C99.7415 89.856 99.8855 89.9253 99.9921 90.064C100.109 90.2027 100.168 90.3893 100.168 90.624C100.168 90.9547 99.9708 91.232 99.5761 91.456C99.2135 91.6587 98.8028 91.824 98.3441 91.952C97.8855 92.0693 97.4481 92.128 97.0321 92.128C95.7735 92.128 94.7761 91.7653 94.0401 91.04C93.3041 90.3147 92.9361 89.3227 92.9361 88.064C92.9361 87.264 93.0961 86.5547 93.4161 85.936C93.7361 85.3173 94.1841 84.8373 94.7601 84.496C95.3468 84.1547 96.0081 83.984 96.7441 83.984C97.4481 83.984 98.0615 84.1387 98.5841 84.448C99.1068 84.7573 99.5121 85.1947 99.8001 85.76C100.088 86.3253 100.232 86.992 100.232 87.76C100.232 88.2187 100.029 88.448 99.6241 88.448H94.9041C94.9681 89.184 95.1761 89.728 95.5281 90.08C95.8801 90.4213 96.3921 90.592 97.0641 90.592C97.4055 90.592 97.7041 90.5493 97.9601 90.464C98.2268 90.3787 98.5255 90.2613 98.8561 90.112C99.1761 89.9413 99.4108 89.856 99.5601 89.856ZM96.7921 85.392C96.2481 85.392 95.8108 85.5627 95.4801 85.904C95.1601 86.2453 94.9681 86.736 94.9041 87.376H98.5201C98.4988 86.7253 98.3388 86.2347 98.0401 85.904C97.7415 85.5627 97.3255 85.392 96.7921 85.392Z" fill="#F9F9F4"/>
</svg>
